<svg width="48" height="48" viewBox="0 0 48 48" fill="none" xmlns="http://www.w3.org/2000/svg">
  <!-- Cloud shape -->
  <path d="M14 28C10 28 7 25 7 21C7 17 10 14 14 14C14 10 17 7 21 7C24 7 26.5 9 27.5 11.5C28.5 11 29.5 11 31 11C35 11 38 14 38 18C38 19 37.5 20 37 21C40 21 43 24 43 27C43 30 40 33 37 33H14C10 33 7 30 7 27" stroke="#00f5ff" stroke-width="2.5" stroke-linecap="round" stroke-linejoin="round" fill="none"/>

  <!-- Server bars inside cloud -->
  <rect x="18" y="20" width="14" height="3" rx="1" fill="#00f5ff" opacity="0.6"/>
  <rect x="18" y="25" width="14" height="3" rx="1" fill="#00f5ff" opacity="0.4"/>
  <rect x="18" y="30" width="10" height="3" rx="1" fill="#00f5ff" opacity="0.3"/>
</svg>
